<svg id="visual" viewBox="0 0 2200 1500" width="2200" height="1500" xmlns="http://www.w3.org/2000/svg" xmlns:xlink="http://www.w3.org/1999/xlink" version="1.1"><rect x="0" y="0" width="2200" height="1500" fill="#141518"></rect><path d="M360 0L241 0L241 214L313 214L313 429L313 429L313 643L268 643L268 857L275 857L275 1071L319 1071L319 1286L280 1286L280 1500L0 1500L0 1286L0 1286L0 1071L0 1071L0 857L0 857L0 643L0 643L0 429L0 429L0 214L0 214L0 0L0 0Z" fill="#e18f11"></path><path d="M224 0L225 0L225 214L195 214L195 429L172 429L172 643L266 643L266 857L170 857L170 1071L144 1071L144 1286L217 1286L217 1500L0 1500L0 1286L0 1286L0 1071L0 1071L0 857L0 857L0 643L0 643L0 429L0 429L0 214L0 214L0 0L0 0Z" fill="#b5730e"></path><path d="M61 0L84 0L84 214L155 214L155 429L150 429L150 643L106 643L106 857L102 857L102 1071L65 1071L65 1286L75 1286L75 1500L0 1500L0 1286L0 1286L0 1071L0 1071L0 857L0 857L0 643L0 643L0 429L0 429L0 214L0 214L0 0L0 0Z" fill="#8c590b"></path></svg>