<svg id="visual" viewBox="0 0 900 600" width="900" height="600" xmlns="http://www.w3.org/2000/svg" xmlns:xlink="http://www.w3.org/1999/xlink" version="1.1"><rect x="0" y="0" width="900" height="600" fill="#18181b"></rect><path d="M0 36L64 36L64 25L129 25L129 21L193 21L193 26L257 26L257 24L321 24L321 27L386 27L386 31L450 31L450 20L514 20L514 25L579 25L579 21L643 21L643 28L707 28L707 21L771 21L771 27L836 27L836 32L900 32L900 24L900 0L900 0L836 0L836 0L771 0L771 0L707 0L707 0L643 0L643 0L579 0L579 0L514 0L514 0L450 0L450 0L386 0L386 0L321 0L321 0L257 0L257 0L193 0L193 0L129 0L129 0L64 0L64 0L0 0Z" fill="#eab308" stroke-linecap="square" stroke-linejoin="miter"></path></svg>