<svg id="visual" viewBox="0 0 1042 1920" width="1042" height="1920" xmlns="http://www.w3.org/2000/svg" xmlns:xlink="http://www.w3.org/1999/xlink" version="1.1"><rect x="0" y="0" width="1042" height="1920" fill="#141518"></rect><defs><linearGradient id="grad1_0" x1="0%" y1="0%" x2="100%" y2="100%"><stop offset="30%" stop-color="#141518" stop-opacity="1"></stop><stop offset="70%" stop-color="#141518" stop-opacity="1"></stop></linearGradient></defs><defs><linearGradient id="grad2_0" x1="0%" y1="0%" x2="100%" y2="100%"><stop offset="30%" stop-color="#141518" stop-opacity="1"></stop><stop offset="70%" stop-color="#141518" stop-opacity="1"></stop></linearGradient></defs><g transform="translate(1042, 0)"><path d="M0 260.5C-29.1 243 -58.3 225.6 -88.4 213.4C-118.5 201.2 -149.6 194.4 -176.8 176.8C-204 159.2 -227.4 130.9 -240.7 99.7C-254 68.4 -257.2 34.2 -260.5 0L0 0Z" fill="#d0891f"></path></g><g transform="translate(0, 1920)"><path d="M0 -260.5C37.5 -260.7 75.1 -260.9 99.7 -240.7C124.3 -220.5 136.1 -179.9 152 -152C168 -124.1 188.2 -108.9 206.9 -85.7C225.7 -62.5 243.1 -31.2 260.5 0L0 0Z" fill="#d0891f"></path></g></svg>